<?xml version="1.0" encoding="iso-8859-1"?>
<!-- Generator: Adobe Illustrator 19.0.0, SVG Export Plug-In . SVG Version: 6.00 Build 0)  -->
<svg version="1.1" id="Layer_1" xmlns="http://www.w3.org/2000/svg" xmlns:xlink="http://www.w3.org/1999/xlink" x="0px" y="0px"
	 viewBox="-79 -360 800 1280" style="enable-background:new -79 -360 800 1280;" xml:space="preserve">
<path id="XMLID_4_" style="fill:#FFC0CB;" d="M507.59,292.767c-4.282,23.958-21.383,100.078-29.073,124.019h-355.79v-24.809
	c66.706-3.409,72.694-8.542,72.694-75.248V2.837c0-65.855-5.133-70.12-71.839-75.248v-23.958h205.256v23.958
	c-65.003,4.265-73.546,8.542-73.546,75.248v308.759c0,42.765,5.133,58.147,19.659,66.706c15.399,8.559,43.621,10.266,77.844,10.266
	c43.621,0,70.12-4.282,88.089-23.958c14.526-15.382,29.073-39.339,41.046-76.104L507.59,292.767z"/>
<path id="XMLID_5_" style="fill:#41D6C3;" d="M231.145,532.115c-22.672,0-43.819-3.19-63.44-9.57s-36.233-13.886-49.837-22.525
	l-18.049,20.607H77.581L74.18,369.591h22.499c5.057,14.366,11.509,29.503,19.36,45.437c7.847,15.934,16.916,30.203,27.207,42.786
	c10.641,13.174,22.542,23.899,35.711,32.167c13.169,8.256,28.559,12.39,46.175,12.39c23.717,0,41.901-6.528,54.544-19.592
	c12.643-13.064,18.968-29.516,18.968-49.365c0-16.305-5.365-30.005-16.09-41.109c-10.725-11.092-27.337-20.683-49.837-28.766
	c-14.649-5.323-28.121-10.245-40.418-14.783s-23.848-9.162-34.662-13.898c-24.939-11.201-43.469-27.219-55.589-48.05
	c-12.12-20.831-18.18-44.114-18.18-69.862c0-16.317,3.14-31.994,9.419-47.022c6.279-15.04,15.436-28.547,27.468-40.532
	c11.509-11.201,26.246-20.338,44.211-27.417c17.965-7.08,37.498-10.611,58.598-10.611c20.578,0,39.849,3.236,57.814,9.714
	c17.965,6.477,32.091,12.954,42.382,19.432l15.959-17.666h22.761l2.094,142.498h-22.499c-5.234-15.348-11.378-31.037-18.441-47.068
	c-7.063-16.031-14.518-29.369-22.369-39.993c-8.546-11.408-18.399-20.51-29.562-27.295c-11.163-6.785-24.244-10.181-39.242-10.181
	c-18.837,0-34.228,5.997-46.175,17.995c-11.947,11.985-17.919,26.827-17.919,44.518c0,16.722,5.188,30.376,15.567,40.995
	c10.375,10.611,26.553,19.958,48.526,28.02c12.904,4.905,26.073,9.827,39.504,14.733c13.431,4.918,25.378,9.629,35.842,14.155
	c25.289,11.003,44.518,26.191,57.683,45.547c13.169,19.36,19.752,43.376,19.752,72.071c0,18.096-3.751,35.589-11.248,52.479
	c-7.501,16.903-17.615,30.962-30.346,42.163c-13.953,12.377-30.085,21.909-48.396,28.593
	C276.924,528.765,255.558,532.115,231.145,532.115z"/>
<g id="Layer_2">
</g>
</svg>
